<svg xmlns="http://www.w3.org/2000/svg" viewBox="0 0 16.933333 16.933333">
  <path fill="#27363b" d="M5.4864057 14.122389h1.2530642V6.9934693H5.4864057v-.8297317h1.2530642V4.7921403q0-.6095988.2031996-1.1175978t.5587989-.8635983q.3725326-.3725326.8635983-.5757322.507999-.2031996 1.1006645-.2031996.9143978 0 1.4393308.3555993.541865.3555993.541865 1.015998 0 .4402658-.253999.7111986-.237066.2539995-.626532.2539995-.372533 0-.6095991-.2370662-.2201329-.2370662-.2201329-.5757322 0-.5926655.457199-.7789318V2.743211q-.118533-.033867-.2709327-.0508-.1523997-.016933-.338666-.016933-.7111986 0-1.0837312.507999-.3725326.5079988-.3725326 1.422397v1.5578636H10.02453v.8297317H8.1280005v7.1289197h1.5917302v.778931h-4.233325z" aria-label="f" font-family="IBM Plex Serif" font-size="16.9333" style="-inkscape-font-specification:&quot;IBM Plex Serif&quot;"/>
</svg>
