<svg xmlns="http://www.w3.org/2000/svg" viewBox="0 0 4.2333333 4.2333333">
  <path fill="#fff" d="M.00016665.00016665h4.2329998v4.2329998H.00016665z"/>
  <path fill="#2c3e50" d="M0 0v4.233h4.233V0Zm1.2892385 1.3224462c.047984 0 .092987.00575.1367375.015627.045161.00988.084201.025712.11525.046881l-.08595.2383144c-.018347-.0127017-.039928-.022245-.062508-.029301-.022582-.00706-.046872-.00977-.072276-.00977-.047984 0-.084528.012796-.1113432.041022-.025404.026815-.039068.068023-.039068.1230637v.048839h.2930096v.253939h-.2832417v.8594924H.84972544v-.8594924H.67392015v-.2539409h.17580529v-.050788c0-.1284288.0370863-.2304721.11329669-.3066826.07621057-.0776218.18508597-.1172036.32621637-.1172036Zm1.0196705.4316996c.1044367 0 .1958531.028413.2734749.082042.041451.027388.076831.062566.1035297.1054831.032795-.041704.071679-.077663.1191569-.1074365.084677-.052218.1804316-.080089.2891021-.080089.090323 1e-7 .1711132.019955.2402671.056649.070566.035283.1245683.089286.1640849.1640849.040927.073388.062508.1675148.062508.2832418v.6524326h-.3301225v-.6016446c-1e-7-.091735-.018544-.1594023-.056649-.2031527-.038106-.043751-.092978-.064462-.1621315-.064462-.047984 0-.090818.010626-.1289239.033208-.038106.02117-.066734.053919-.087902.097669-.02117.043751-.033209.1002492-.033209.1679917v.5703906h-.330122v-.6016446c0-.091735-.018543-.1594023-.056648-.2031527-.036694-.043751-.089071-.064462-.1582248-.064462-.047984 0-.090818.010626-.1289239.033208-.038106.0211696-.068686.0539191-.089856.0976691-.02117.0437509-.031255.1002492-.031255.1679917v.5703905h-.3301227V1.7717264h.3144961v.1328306c.030741-.035528.065871-.065082.1074365-.087903.073387-.040929.1568881-.062509.2500341-.0625082Z"/>
</svg>
