<svg xmlns="http://www.w3.org/2000/svg" viewBox="0 0 12.7 12.7">
  <path fill="#1f2937" d="M0 0h12.7v12.7H0z"/>
  <g fill="#fff" stroke-width=".264583" aria-label="fm." font-family="Montserrat" font-size="4.23333" font-weight="800" style="-inkscape-font-specification:&quot;Montserrat Ultra-Bold&quot;">
    <path fill="#f9fafb" d="M3.0691755 7.6538654h.2539998V6.0113335h-.2539998v-.2963331h.2539998v-.1735665q0-.3936997.2455332-.6095995.2455331-.2158998.6900327-.2158998.1481666 0 .2539998.0381.1100666.033867.1820332.093133.071967.059267.1058332.1354666.033867.0762.033867.1566332 0 .1354665-.0762.2201331-.0762.084667-.2116665.084667-.1396998 0-.2116665-.0762-.071967-.0762-.071967-.1862665 0-.084667.033867-.1312333.0381-.046567.0762-.0635v-.0254q-.042333-.00847-.1015999-.00847-.1608665 0-.2328331.1100666-.071967.1100666-.071967.3640664v.2878697h.423333v.2963331h-.4233329v1.6425319h.3386663v.2793998H3.0691755Zm1.6298249 0h.2539998V6.1425667l-.2539998-.0550333v-.2412998l.8847659-.1820331v.4190996h.021167q.059267-.1693332.2031998-.2920998.1481666-.1269998.410633-.1269998.2878664 0 .448733.1058332.1650998.1058332.2243664.3132664h.016933q.0677333-.1650999.2285999-.2920998.1608665-.1269998.4275663-.1269998.397933 0 .5587995.2031998.1650999.2031998.1650999.6138328v1.1726323h.2539998v.2793998H7.4252648v-.2793998h.2201331V6.5066331q0-.2243665-.0762-.3174998-.071967-.097366-.2497664-.097366-.071967 0-.1396999.021167-.067733.016933-.1227666.059267-.0508.0381-.084667.1015999-.029633.0635-.029633.1481666v1.2318976h.2201333v.2793998H6.0790659v-.2793998h.2201332V6.5066331q0-.2243665-.0762-.3174998-.071967-.097366-.2455331-.097366-.1481665 0-.2666998.080433-.1142999.0761997-.1142999.2497662v1.2318989h.2201332v.2793998H4.6990004Z"/>
    <path fill="#34d399" d="M9.249825 7.9840652q-.1862665 0-.2836331-.1058333-.097367-.1100666-.097367-.2624664v-.016933q0-.1523999.097367-.2582332.097367-.1100665.2836331-.1100665.1862665 0 .2836331.1100665.097367.1058333.097367.2582332v.016933q0 .1523998-.097367.2624664-.097367.1058333-.2836331.1058333z"/>
  </g>
</svg>
