<svg xmlns="http://www.w3.org/2000/svg" width="12.7" height="12.7" viewBox="0 0 3.36 3.36"><g fill="#0f172a" stroke-width=".265" aria-label="fm." font-family="IBM Plex Serif" font-size="1.411" font-weight="700" style="-inkscape-font-specification:&quot;IBM Plex Serif Bold&quot;"><path d="M0 0h3.36v3.36H0z"/><path fill="#f9fafb" d="M.58 2.115h.084v-.548H.58v-.099h.085v-.057q0-.132.082-.204t.23-.072q.05 0 .085.013.036.011.06.031t.036.045.01.053q0 .045-.025.073t-.07.028q-.047 0-.07-.025-.025-.026-.025-.062 0-.029.012-.044.012-.016.025-.021v-.009Q1 1.214.98 1.214q-.053 0-.077.037t-.024.121v.096h.14v.1H.88v.547H.99v.093H.58Zm.543 0h.084V1.61l-.084-.018v-.08l.295-.061v.14h.007q.02-.057.067-.098.05-.042.137-.042.096 0 .15.035.055.035.075.104h.005q.023-.055.077-.097.053-.042.142-.042.133 0 .186.067.055.068.055.205v.39h.085v.094h-.373v-.093h.074v-.383q0-.074-.026-.106-.024-.032-.083-.032-.024 0-.046.007-.023.006-.041.02-.017.013-.029.034-.01.02-.01.05v.41h.074v.093h-.361v-.093h.073v-.383q0-.074-.025-.106-.024-.032-.082-.032-.05 0-.089.027-.038.025-.038.083v.41h.073v.094h-.372Z"/><path fill="#3b82f6" d="M2.64 2.225q-.062 0-.095-.035-.032-.037-.032-.088v-.006q0-.05.032-.086.033-.036.095-.036t.094.036q.033.036.033.086v.006q0 .05-.033.088-.032.035-.094.035"/></g></svg>