<svg xmlns="http://www.w3.org/2000/svg" viewBox="0 0 4.2333333 4.2333333">
  <path fill="#2c3e50" d="M.84878262 2.9104178V1.7462494q0-.192617.11430017-.3069172.11430021-.1164168.32596721-.1164168.071967 0 .1375835.014817.067733.014817.1143002.046567l-.086784.2391837q-.027517-.01905-.061383-.029633-.033867-.010583-.071967-.010583-.071967 0-.1121835.042333-.0381.040217-.0381.1227668v.1058335l.00847.1418169v.9144005Zm-.1756836-.859368v-.2540004h.78951788v.2540004ZM3.0945669 1.754716q.1354669 0 .2391837.055033.1058335.052917.1651003.1651002.061383.1100668.061383.2836338v.6519348h-.3302001v-.6011343q0-.1375835-.05715-.2032003-.05715-.065617-.1608669-.065617-.071967 0-.1291168.033867-.05715.03175-.0889.097367-.03175.065617-.03175.1672169v.5715007h-.3302008v-.6011343q0-.1375835-.05715-.2032003-.055033-.065617-.1587503-.065617-.071967 0-.1291168.033867-.05715.03175-.0889.097367-.03175.065617-.03175.1672169v.5715007h-.3302008V1.7716494h.3153838v.3111505l-.059267-.091017q.059267-.1164169.167217-.1756836.1100668-.061384.249767-.061384.1566336 0 .2730504.080434.1185335.078317.1566336.2413004l-.1164166-.0317499q.05715-.1333502.1820336-.211667.1270002-.0783168.2899837-.0783168Z" />
</svg>
