<svg xmlns="http://www.w3.org/2000/svg" viewBox="0 0 12.7 12.7">
  <path d="M5.7347619 6.5306217q.1580443 0 .1580443.2370664 0 .4459108-.6999106.4459108-.1354666 0-.3894664-.0508.073378.3499553.1185333.7789327.0508.423333.0508.6999106 0 .6095995-.1975554.9313326-.1975555.3217332-.5192886.3217332-.4063997 0-.5813773-.5757329-.1693332-.5757329-.1693332-1.7384876 0-1.0837325.231422-2.1956872.2370665-1.1175991.6434662-1.8457319.4120442-.7337773.9031104-.7337773.2652887 0 .4120442.2370665.1523999.2370665.1523999.6378218 0 1.3264434-1.5860877 2.8899533-.056444.5531552-.056444.9708438 0 .5813773.039511 1.1909768.039511.615244.1298221.615244.1693332 0 .1693332-.5870218 0-.4402663-.062089-.8523104-.056444-.4120442-.1580443-.8692438-.00564-.073378.045155-.1862665.056444-.1128889.1354666-.1975555.079022-.084667.141111-.084667.1128888 0 .2709331.011289.0508.00564.1185333.00564.2257776 0 .5023552-.039511.045155-.00564.095955-.011289.0508-.00564.1016007-.00564zm-.5700885-3.166531q-.1015999 0-.2539998.3443109-.1467555.3443108-.2935109.9143993-.1467554.564444-.2539998 1.1966213.4515552-.5136441.6942661-1.0667992.242711-.5587996.2483554-1.0442214 0-.3443109-.141111-.3443109zm.6998988 4.7751964q-.2144887 0-.3047997-.2257776-.084667-.2257776-.084667-.7224883 0-.7337773.2088442-1.3941768.0508-.1636887.1636888-.2370664.1185333-.079022.3273775-.079022.1128888 0 .1580444.028222.045155.028222.045155.1072444 0 .090311-.084667.4063996-.056443.2257777-.09031.3951109-.0338664.1636887-.0564442.4120441.1523999-.4402663.3612442-.7450661.2144887-.3047998.4346219-.4515552.2257776-.1523999.423333-.1523999.1975554 0 .2765776.090311.084667.090311.084667.2765776 0 .1806221-.1072444.6547551-.0451559.2031998-.0620892.3047997.1862665-.4741329.4120441-.7732883.2314221-.2991553.4515552-.423333.2201332-.1298221.4063997-.1298221.1806221 0 .2709331.095956.095956.090311.095956.2709331 0 .1467554-.062089.5531551-.056444.3443109-.090311.6547551-.033867.3047998-.033867.6829773 0 .2144887-.090311.3104442-.084667.090311-.282222.090311-.1862666 0-.2709332-.095956-.084667-.095956-.084667-.2878664 0-.2257776.079022-.7450661.067733-.4515552.067733-.5757329 0-.090311-.062089-.090311-.073378 0-.2088443.191911-.1354655.1862664-.2709321.4967106-.1354666.3104442-.2201332.6547551-.0620888.2709331-.1467554.3612442-.0790222.090311-.2596442.090311-.1862666 0-.2822221-.1749776-.090311-.1806221-.090311-.4346219 0-.2144888.056444-.6208884.045155-.3612442.045155-.474133 0-.090311-.062089-.090311-.084667 0-.2144887.2031999-.1298211.2031997-.2539988.5192884-.1185332.3160886-.1919109.6208884-.0620889.2652887-.1467555.3612442-.0790221.090311-.2539998.090311Z" aria-label="fm" font-family="Pacifico" font-size="5.64444" style="-inkscape-font-specification:Pacifico"/>
</svg>
