<svg xmlns="http://www.w3.org/2000/svg" viewBox="0 0 50.799999 50.8">
  <rect width="50.799999" height="51.091042" y="-3e-8" rx="4.2333331"/>
  <path fill="#fff" d="M22.939043 26.122491q.632179 0 .632179.948267 0 1.783647-2.799647 1.783647-.541868 0-1.557869-.203201.293512 1.399824.474134 3.115737.2032 1.693335.2032 2.799647 0 2.438403-.790223 3.725337-.790223 1.286935-2.077157 1.286935-1.625602 0-2.325514-2.302936-.677334-2.302935-.677334-6.953962 0-4.334938.92569-8.782765.948268-4.470404 2.573869-7.382941 1.64818-2.935114 3.612448-2.935114 1.061157 0 1.64818.948268.6096.948267.6096 2.551291 0 5.305783-6.344362 11.559834-.225778 2.212625-.225778 3.883382 0 2.325514.158045 4.763916.158045 2.46098.519289 2.46098.677334 0 .677334-2.348091 0-1.761068-.248355-3.409248-.225778-1.648179-.632179-3.476981-.02258-.293512.180623-.745068.225778-.451556.541867-.790223.316089-.338667.564445-.338667.451556 0 1.083734.04516.203201.02258.474134.02258.903112 0 2.009424-.158045.180623-.02258.383823-.04516.2032-.02258.4064-.02258zm-2.280357-12.666147q-.406401 0-1.016002 1.377246-.587022 1.377246-1.174045 3.657604-.587023 2.25778-1.016001 4.786494 1.806224-2.05458 2.777069-4.267205.970846-2.235202.993424-4.176893 0-1.377246-.564445-1.377246zm2.7996 19.10082q-.857956 0-1.219201-.903112-.338667-.903112-.338667-2.889959 0-2.935114.835378-5.576716.203201-.654757.654757-.948268.474133-.316089 1.309512-.316089.451556 0 .632179.112889.180622.112889.180622.428978 0 .361245-.338667 1.625602-.225778.903112-.361245 1.580446-.135467.654756-.225778 1.648179.609601-1.761068 1.444979-2.98027.857957-1.219201 1.738491-1.806224.903112-.6096 1.693335-.6096t1.106312.361245q.338667.361244.338667 1.106312 0 .722489-.428978 2.619025-.180622.812801-.248356 1.219201.745068-1.896535 1.64818-3.093159.92569-1.196623 1.806224-1.693335.880534-.519289 1.625601-.519289.72249 0 1.083735.383822.383822.361245.383822 1.083735 0 .587023-.248355 2.212624-.225778 1.377246-.361245 2.619025-.135467 1.219201-.135467 2.731914 0 .857956-.361245 1.241779-.338667.361245-1.12889.361245-.745067 0-1.083734-.383823-.338667-.383822-.338667-1.151468 0-.903112.316089-2.980269.270934-1.806224.270934-2.302936 0-.361245-.248356-.361245-.293512 0-.835379.767645-.541867.745068-1.083734 1.986847-.541867 1.241779-.880535 2.619025-.248355 1.083734-.587022 1.444979-.31609.361245-1.038579.361245-.745068 0-1.12889-.699912-.361245-.72249-.361245-1.738491 0-.857956.225778-2.483558.180622-1.444979.180622-1.896535 0-.361245-.248355-.361245-.338667 0-.857957.812801-.519289.812801-1.016001 2.077158-.474134 1.264357-.767645 2.483558-.248356 1.061156-.587023 1.444979-.316089.361245-1.016001.361245z" aria-label="fm" font-family="Pacifico" font-size="22.5778" style="-inkscape-font-specification:Pacifico"/>
</svg>
